<mxfile host="65bd71144e">
    <diagram id="7FGddztJ5h3-KlylFDby" name="Page-1">
        <mxGraphModel dx="1712" dy="1716" grid="0" gridSize="10" guides="1" tooltips="1" connect="1" arrows="1" fold="1" page="1" pageScale="1" pageWidth="850" pageHeight="1100" background="#FFFFFF" math="0" shadow="1">
            <root>
                <mxCell id="0"/>
                <mxCell id="1" parent="0"/>
                <mxCell id="32" value="" style="edgeStyle=none;html=1;fontFamily=Helvetica;fontSize=14;fillColor=#dae8fc;strokeColor=#6c8ebf;strokeWidth=6;" parent="1" source="3" target="10" edge="1">
                    <mxGeometry relative="1" as="geometry"/>
                </mxCell>
                <mxCell id="3" value="&lt;h4&gt;&lt;font style=&quot;font-size: 18px;&quot;&gt;Start&lt;/font&gt;&lt;/h4&gt;" style="ellipse;whiteSpace=wrap;html=1;fillColor=#f5f5f5;fontColor=#333333;strokeColor=#666666;" parent="1" vertex="1">
                    <mxGeometry x="-112" y="-677.5" width="120" height="60" as="geometry"/>
                </mxCell>
                <mxCell id="14" value="" style="edgeStyle=none;html=1;fontFamily=Helvetica;fontSize=14;fillColor=#d5e8d4;strokeColor=#82b366;strokeWidth=5;" parent="1" source="10" target="12" edge="1">
                    <mxGeometry relative="1" as="geometry"/>
                </mxCell>
                <mxCell id="27" value="" style="edgeStyle=none;html=1;fontFamily=Helvetica;fontSize=14;fillColor=#e1d5e7;strokeColor=#9673a6;strokeWidth=5;" parent="1" source="10" target="26" edge="1">
                    <mxGeometry relative="1" as="geometry"/>
                </mxCell>
                <mxCell id="10" value="&lt;h4&gt;&lt;font style=&quot;font-size: 18px;&quot;&gt;Introduction&lt;/font&gt;&lt;/h4&gt;" style="rounded=1;whiteSpace=wrap;html=1;fillColor=#60a917;strokeColor=#2D7600;fontColor=#ffffff;" parent="1" vertex="1">
                    <mxGeometry x="60" y="-691" width="161" height="103" as="geometry"/>
                </mxCell>
                <mxCell id="12" value="&lt;ul&gt;&lt;li&gt;&lt;font style=&quot;font-size: 18px;&quot;&gt;Background of embedded systems and their importance&lt;/font&gt;&lt;/li&gt;&lt;li&gt;&lt;font style=&quot;font-size: 18px;&quot;&gt;Overview of the case company and background&lt;br&gt;&lt;/font&gt;&lt;/li&gt;&lt;li&gt;&lt;font style=&quot;font-size: 18px;&quot;&gt;Objectives, Purpose and Scope&lt;/font&gt;&lt;br&gt;&lt;/li&gt;&lt;/ul&gt;" style="shape=parallelogram;perimeter=parallelogramPerimeter;whiteSpace=wrap;html=1;fixedSize=1;rounded=1;fontFamily=Helvetica;fontSize=14;align=left;arcSize=19;shadow=0;" parent="1" vertex="1">
                    <mxGeometry x="266" y="-694" width="694" height="107" as="geometry"/>
                </mxCell>
                <mxCell id="30" value="" style="edgeStyle=none;html=1;fontFamily=Helvetica;fontSize=14;fillColor=#d5e8d4;strokeColor=#82b366;strokeWidth=5;" parent="1" source="26" target="29" edge="1">
                    <mxGeometry relative="1" as="geometry"/>
                </mxCell>
                <mxCell id="34" value="" style="edgeStyle=none;html=1;fontFamily=Helvetica;fontSize=14;fillColor=#e1d5e7;strokeColor=#9673a6;strokeWidth=5;" parent="1" source="26" target="33" edge="1">
                    <mxGeometry relative="1" as="geometry"/>
                </mxCell>
                <mxCell id="26" value="&lt;h4&gt;&lt;font style=&quot;font-size: 18px;&quot;&gt;Literature Review:&amp;nbsp;Fuzzing as a Testing Technique&lt;/font&gt;&lt;/h4&gt;" style="whiteSpace=wrap;html=1;rounded=1;fontFamily=Helvetica;fontSize=14;fillColor=#60a917;fontColor=#ffffff;strokeColor=#2D7600;" parent="1" vertex="1">
                    <mxGeometry x="52" y="-561" width="163" height="134" as="geometry"/>
                </mxCell>
                <mxCell id="29" value="&lt;ul&gt;&lt;li&gt;&lt;font style=&quot;font-size: 18px;&quot;&gt;What is Software Testing&lt;br&gt;&lt;/font&gt;&lt;/li&gt;&lt;li&gt;&lt;font style=&quot;font-size: 18px;&quot;&gt;Fuzzy Testing: An Introduction&lt;/font&gt;&lt;/li&gt;&lt;li&gt;&lt;font style=&quot;font-size: 18px;&quot;&gt;History And Evoulation of fuzzing&lt;/font&gt;&lt;/li&gt;&lt;li&gt;&lt;span style=&quot;font-size: 18px; background-color: initial;&quot;&gt;Success of fuzzing including embedded environments&lt;/span&gt;&lt;br&gt;&lt;/li&gt;&lt;/ul&gt;" style="shape=parallelogram;perimeter=parallelogramPerimeter;whiteSpace=wrap;html=1;fixedSize=1;rounded=1;fontFamily=Helvetica;fontSize=14;align=left;arcSize=19;" parent="1" vertex="1">
                    <mxGeometry x="254.5" y="-567" width="680" height="131" as="geometry"/>
                </mxCell>
                <mxCell id="41" value="" style="edgeStyle=none;html=1;fontFamily=Helvetica;fontSize=14;fillColor=#d5e8d4;strokeColor=#82b366;strokeWidth=5;" parent="1" source="33" target="35" edge="1">
                    <mxGeometry relative="1" as="geometry"/>
                </mxCell>
                <mxCell id="43" value="" style="edgeStyle=none;html=1;fontFamily=Helvetica;fontSize=14;fillColor=#e1d5e7;strokeColor=#9673a6;strokeWidth=5;" parent="1" source="33" target="42" edge="1">
                    <mxGeometry relative="1" as="geometry"/>
                </mxCell>
                <mxCell id="33" value="&lt;h3&gt;&lt;font style=&quot;font-size: 18px;&quot;&gt;Current State Analysis of the Case Company&lt;/font&gt;&lt;/h3&gt;" style="whiteSpace=wrap;html=1;fontSize=14;rounded=1;fontFamily=Helvetica;fillColor=#60a917;fontColor=#ffffff;strokeColor=#2D7600;" parent="1" vertex="1">
                    <mxGeometry x="49" y="-393" width="170" height="142" as="geometry"/>
                </mxCell>
                <mxCell id="35" value="&lt;ul&gt;&lt;li&gt;&lt;font style=&quot;font-size: 18px;&quot;&gt;Overview of available Embedded fuzzing tools and fuzzers&lt;br&gt;&lt;/font&gt;&lt;/li&gt;&lt;li&gt;&lt;font style=&quot;font-size: 18px;&quot;&gt;Comparison of different fuzzing tools in terms of functionality, ease of use, and effectiveness&lt;br&gt;&lt;/font&gt;&lt;/li&gt;&lt;li&gt;&lt;font style=&quot;font-size: 18px;&quot;&gt;Overview of open-source projects and ongoing research on fuzzing&lt;/font&gt;&lt;br&gt;&lt;/li&gt;&lt;/ul&gt;" style="shape=parallelogram;perimeter=parallelogramPerimeter;whiteSpace=wrap;html=1;fixedSize=1;rounded=1;fontFamily=Helvetica;fontSize=14;align=left;arcSize=19;" parent="1" vertex="1">
                    <mxGeometry x="241" y="-403" width="707" height="138" as="geometry"/>
                </mxCell>
                <mxCell id="46" value="" style="edgeStyle=none;html=1;fontFamily=Helvetica;fontSize=14;fillColor=#d5e8d4;strokeColor=#82b366;strokeWidth=5;" parent="1" source="42" target="44" edge="1">
                    <mxGeometry relative="1" as="geometry"/>
                </mxCell>
                <mxCell id="48" value="" style="edgeStyle=none;html=1;fontFamily=Helvetica;fontSize=14;fillColor=#e1d5e7;strokeColor=#9673a6;strokeWidth=5;" parent="1" source="42" target="47" edge="1">
                    <mxGeometry relative="1" as="geometry"/>
                </mxCell>
                <mxCell id="42" value="&lt;h3&gt;&lt;font style=&quot;font-size: 18px;&quot;&gt;Implementation and Proof of Concept&lt;/font&gt;&lt;/h3&gt;" style="whiteSpace=wrap;html=1;fontSize=14;rounded=1;fillColor=#60a917;fontColor=#ffffff;strokeColor=#2D7600;" parent="1" vertex="1">
                    <mxGeometry x="43" y="-200" width="171" height="125" as="geometry"/>
                </mxCell>
                <mxCell id="44" value="&lt;ul style=&quot;text-align: left;&quot;&gt;&lt;li&gt;&lt;font style=&quot;font-size: 18px;&quot;&gt;Choosen fuzz testing tools (OSS-Fuzz and&amp;nbsp;ClusterFuzzLite&lt;/font&gt;&lt;/li&gt;&lt;li&gt;&lt;font style=&quot;font-size: 18px;&quot;&gt;Building a suitable fuzzing target for the case company's embedded project&lt;br&gt;&lt;/font&gt;&lt;/li&gt;&lt;li&gt;&lt;font style=&quot;font-size: 18px;&quot;&gt;Evaluation of the impact of fuzz testing&lt;/font&gt;&lt;/li&gt;&lt;/ul&gt;" style="shape=parallelogram;perimeter=parallelogramPerimeter;whiteSpace=wrap;html=1;fixedSize=1;fontSize=14;rounded=1;fontFamily=Helvetica;" parent="1" vertex="1">
                    <mxGeometry x="241" y="-208" width="674" height="127" as="geometry"/>
                </mxCell>
                <mxCell id="50" value="" style="edgeStyle=none;html=1;fontFamily=Helvetica;fontSize=14;fillColor=#d5e8d4;strokeColor=#82b366;strokeWidth=5;" parent="1" source="47" target="49" edge="1">
                    <mxGeometry relative="1" as="geometry"/>
                </mxCell>
                <mxCell id="53" value="" style="edgeStyle=none;html=1;fontFamily=Helvetica;fontSize=12;fillColor=#e1d5e7;strokeColor=#9673a6;endSize=9.44;strokeWidth=5;" parent="1" source="47" target="52" edge="1">
                    <mxGeometry relative="1" as="geometry"/>
                </mxCell>
                <mxCell id="47" value="&lt;h3&gt;&lt;font style=&quot;font-size: 18px;&quot;&gt;Analysis and Results&lt;/font&gt;&lt;/h3&gt;" style="whiteSpace=wrap;html=1;fontSize=14;rounded=1;fontFamily=Helvetica;fillColor=#60a917;fontColor=#ffffff;strokeColor=#2D7600;" parent="1" vertex="1">
                    <mxGeometry x="43" y="-45" width="165" height="102" as="geometry"/>
                </mxCell>
                <mxCell id="59" style="edgeStyle=none;html=1;exitX=1;exitY=1;exitDx=0;exitDy=0;entryX=0.964;entryY=-0.008;entryDx=0;entryDy=0;entryPerimeter=0;fontSize=18;" parent="1" source="49" target="54" edge="1">
                    <mxGeometry relative="1" as="geometry"/>
                </mxCell>
                <mxCell id="49" value="&lt;ul style=&quot;text-align: left;&quot;&gt;&lt;li&gt;&lt;font style=&quot;font-size: 18px;&quot;&gt;Analysis of the effectiveness of fuzz testing&lt;/font&gt;&lt;/li&gt;&lt;li&gt;&lt;font style=&quot;font-size: 18px;&quot;&gt;Discussion of the potential benefits and implications of integrating fuzz testing into the company's development lifecycle&lt;/font&gt;&lt;/li&gt;&lt;/ul&gt;" style="shape=parallelogram;perimeter=parallelogramPerimeter;whiteSpace=wrap;html=1;fixedSize=1;fontSize=14;rounded=1;fontFamily=Helvetica;" parent="1" vertex="1">
                    <mxGeometry x="280" y="-56" width="552" height="126" as="geometry"/>
                </mxCell>
                <mxCell id="56" value="" style="edgeStyle=none;html=1;fontFamily=Helvetica;fontSize=12;fillColor=#d5e8d4;strokeColor=#82b366;strokeWidth=5;" parent="1" source="52" target="54" edge="1">
                    <mxGeometry relative="1" as="geometry"/>
                </mxCell>
                <mxCell id="58" value="" style="edgeStyle=none;html=1;fontFamily=Helvetica;fontSize=12;fillColor=#e1d5e7;strokeColor=#9673a6;strokeWidth=5;" parent="1" source="52" target="57" edge="1">
                    <mxGeometry relative="1" as="geometry"/>
                </mxCell>
                <mxCell id="52" value="&lt;h3&gt;&lt;font style=&quot;font-size: 18px;&quot;&gt;Analysis and Results&lt;/font&gt;&lt;/h3&gt;" style="whiteSpace=wrap;html=1;fontSize=14;rounded=1;fontFamily=Helvetica;fillColor=#60a917;fontColor=#ffffff;strokeColor=#2D7600;" parent="1" vertex="1">
                    <mxGeometry x="35" y="93" width="173" height="106" as="geometry"/>
                </mxCell>
                <mxCell id="54" value="&lt;ul style=&quot;&quot;&gt;&lt;li&gt;&lt;font style=&quot;font-size: 18px;&quot;&gt;Summary of the findings of the study&lt;/font&gt;&lt;/li&gt;&lt;li&gt;&lt;font style=&quot;font-size: 18px;&quot;&gt;Recommendations for integrating fuzz testing into the development lifecycle&lt;/font&gt;&lt;/li&gt;&lt;li&gt;&lt;font style=&quot;font-size: 18px;&quot;&gt;Suggestions for future research&lt;/font&gt;&lt;br&gt;&lt;/li&gt;&lt;/ul&gt;" style="shape=parallelogram;perimeter=parallelogramPerimeter;whiteSpace=wrap;html=1;fixedSize=1;fontSize=14;rounded=1;fontFamily=Helvetica;align=left;" parent="1" vertex="1">
                    <mxGeometry x="280" y="76" width="537" height="129" as="geometry"/>
                </mxCell>
                <mxCell id="57" value="&lt;h4&gt;&lt;font style=&quot;font-size: 18px;&quot;&gt;Stop&lt;/font&gt;&lt;/h4&gt;" style="ellipse;whiteSpace=wrap;html=1;fillColor=#f5f5f5;fontColor=#333333;strokeColor=#666666;gradientColor=none;" parent="1" vertex="1">
                    <mxGeometry x="65.5" y="228" width="120" height="60" as="geometry"/>
                </mxCell>
            </root>
        </mxGraphModel>
    </diagram>
</mxfile>